<svg id="Layer_1" data-name="Layer 1" xmlns="http://www.w3.org/2000/svg" viewBox="0 0 500 500"><defs><style>.cls-1,.cls-2,.cls-3{fill:none;stroke-miterlimit:10;stroke-width:0;}.cls-1{stroke:#c5abe1;}.cls-2{stroke:#fdd9aa;}.cls-3{stroke:#fdb3b1;}.cls-4{fill:#8a56c2;}.cls-5{fill:#fbb355;}.cls-6{fill:#fa6663;}</style></defs><path class="cls-1" d="M10.11,10.52a29.75,29.75,0,0,0-3.87,14.3q-.53,186.09.07,388.08a11.26,11.26,0,0,0,2.75,7.26,5.2,5.2,0,0,0,7.67.28L298.44,138.59q7.4-7.4,2.54-16.69a46.07,46.07,0,0,0-8.74-11.63q-45.54-45-89.11-87.84C190.38,9.89,176,3.76,157.83,3.55Q92.54,2.92,21,4.11a11.85,11.85,0,0,0-10.85,6.41"/><path class="cls-2" d="M330.28,3.48a11.87,11.87,0,0,0-8.38,20.29L473.28,175.15a11.87,11.87,0,0,0,20.29-8.38L493.5,15.46A11.93,11.93,0,0,0,481.6,3.55L330.28,3.48"/><path class="cls-3" d="M489.34,308.29a43.57,43.57,0,0,0-4.72-7.89L382.2,197.77a24.12,24.12,0,0,0-34.45.28Q215.35,334.67,88,463.55a92,92,0,0,0-13,16.56A8.53,8.53,0,0,0,80,492.86a114.29,114.29,0,0,0,30.08,3.8q100.49-.95,195.91-2.54c56.78-.91,113.13,2.33,170.47-1.83,10.64-.77,16.13-6.48,16.35-17.19q1.89-82.52.84-149.34a39,39,0,0,0-4.3-17.47"/><path class="cls-4" d="M10.11,10.52A11.85,11.85,0,0,1,21,4.11Q92.5,3,157.83,3.55c18.18.21,32.55,6.34,45.3,18.88q43.53,42.79,89.11,87.84A46.07,46.07,0,0,1,301,121.9q4.86,9.3-2.54,16.69L16.73,420.44a5.2,5.2,0,0,1-7.67-.28,11.26,11.26,0,0,1-2.75-7.26q-.63-202-.07-388.08a29.75,29.75,0,0,1,3.87-14.3Z"/><path class="cls-5" d="M330.28,3.48l151.32.07a11.93,11.93,0,0,1,11.9,11.91l.07,151.31a11.87,11.87,0,0,1-20.29,8.38L321.9,23.77a11.87,11.87,0,0,1,8.38-20.29Z"/><path class="cls-6" d="M489.34,308.29a39,39,0,0,1,4.3,17.47q1.07,66.78-.84,149.34c-.22,10.71-5.71,16.42-16.35,17.19-57.34,4.16-113.69.92-170.47,1.83q-95.42,1.59-195.91,2.54A114.29,114.29,0,0,1,80,492.86a8.53,8.53,0,0,1-5.07-12.75,92,92,0,0,1,13-16.56q127.44-128.91,259.8-265.5a24.12,24.12,0,0,1,34.45-.28L484.62,300.4a43.57,43.57,0,0,1,4.72,7.89Z"/></svg>